<svg width="24" height="25" viewBox="0 0 24 25" fill="none" xmlns="http://www.w3.org/2000/svg">
<path d="M23.7096 23.8503V9.15033C23.712 8.83307 23.6389 8.51975 23.4963 8.23633C23.3537 7.9529 23.1457 7.7075 22.8896 7.52032L12.8896 0.180298C12.7222 0.0641704 12.5233 0.00195312 12.3196 0.00195312C12.1158 0.00195312 11.917 0.0641704 11.7496 0.180298L1.74958 7.52032C1.49525 7.70857 1.28922 7.95443 1.14841 8.23779C1.0076 8.52115 0.936027 8.83393 0.939579 9.15033V23.8503C0.938253 23.9365 0.954078 24.0221 0.986149 24.1021C1.01822 24.1821 1.06589 24.255 1.12638 24.3164C1.18687 24.3778 1.25898 24.4266 1.3385 24.4599C1.41803 24.4932 1.50337 24.5103 1.58957 24.5103H8.06957C8.24461 24.5103 8.4125 24.4408 8.53627 24.317C8.66005 24.1932 8.72957 24.0253 8.72957 23.8503L8.67957 13.5303C8.67825 13.4436 8.69402 13.3576 8.72597 13.277C8.75792 13.1964 8.80543 13.1229 8.86579 13.0607C8.92615 12.9985 8.99817 12.9487 9.07775 12.9144C9.15732 12.88 9.2429 12.8616 9.32958 12.8603H15.1596C15.2463 12.8616 15.3318 12.88 15.4114 12.9144C15.491 12.9487 15.563 12.9985 15.6234 13.0607C15.6837 13.1229 15.7312 13.1964 15.7632 13.277C15.7951 13.3576 15.8109 13.4436 15.8096 13.5303L15.8596 23.8503C15.8583 23.9365 15.8741 24.0221 15.9061 24.1021C15.9382 24.1821 15.9859 24.255 16.0464 24.3164C16.1069 24.3778 16.179 24.4266 16.2585 24.4599C16.338 24.4932 16.4234 24.5103 16.5096 24.5103H22.9896C23.0812 24.5187 23.1735 24.5078 23.2606 24.4784C23.3477 24.449 23.4278 24.4017 23.4956 24.3395C23.5634 24.2774 23.6174 24.2018 23.6543 24.1176C23.6911 24.0333 23.71 23.9422 23.7096 23.8503Z" fill="white"/>
</svg>
